<svg width="512" height="512" viewBox="0 0 512 512" fill="none" xmlns="http://www.w3.org/2000/svg">
<rect width="512" height="512" fill="white"/>
<path d="M249.347 511.053C234.52 511.053 220.962 507.313 208.673 499.832C196.517 492.352 186.833 482.334 179.619 469.777C172.54 457.087 169 442.995 169 427.5L169.401 84.5511C169.401 69.3232 172.874 55.5647 179.82 43.2755C186.766 30.8528 196.316 20.9013 208.472 13.4209C220.761 5.80696 234.386 2 249.347 2C264.575 2 278.133 5.67339 290.021 13.0202C302.043 20.367 311.594 30.3185 318.674 42.8748C325.887 55.2976 329.494 69.1897 329.494 84.5511V103.386C329.494 104.454 328.959 104.989 327.891 104.989H281.806C280.738 104.989 280.203 104.454 280.203 103.386V84.5511C280.203 75.4678 277.265 67.6535 271.387 61.1082C265.51 54.5629 258.163 51.2902 249.347 51.2902C239.596 51.2902 232.115 54.6297 226.906 61.3086C221.696 67.9875 219.091 75.735 219.091 84.5511L219.092 427.5C219.092 437.518 222.03 445.733 227.908 452.145C233.785 458.423 240.932 461.562 249.347 461.562C258.163 461.562 265.51 458.089 271.387 451.143C277.265 444.064 280.204 436.183 280.204 427.5V408.465C280.204 407.397 280.738 406.862 281.807 406.862H328.292C329.36 406.862 329.895 407.397 329.895 408.465V427.5C329.895 442.861 326.288 456.887 319.075 469.577C311.728 482.133 302.044 492.218 290.022 499.832C278 507.313 264.441 511.053 249.347 511.053Z" fill="#E3E3E3"/>
<path d="M135.088 399.523H88.6029C87.5343 399.523 87 398.855 87 397.519L87.8015 116.004C87.8015 114.668 88.3358 114 89.4044 114H135.489C136.557 114 137.092 114.668 137.092 116.004V213.182L201.409 115.603C202.478 114.534 203.48 114 204.415 114H251.501C252.703 114 252.971 114.534 252.303 115.603L181.373 228.81L260.918 397.92C261.586 398.988 260.918 399.523 258.915 399.523H208.823C207.487 399.523 206.686 398.988 206.419 397.92L150.917 277.299L136.691 299.74V397.519C136.691 398.855 136.157 399.523 135.088 399.523Z" fill="black"/>
<path d="M333.257 399.523H287.173C285.837 399.523 285.169 398.855 285.169 397.519L285.97 115.603C285.97 114.534 286.505 114 287.573 114H366.518C391.631 114 411.467 121.681 426.027 137.042C440.72 152.27 448.067 173.041 448.067 199.356C448.067 218.591 444.26 235.355 436.646 249.648C428.899 263.808 418.88 274.761 406.591 282.508C394.302 290.256 380.944 294.13 366.518 294.13H335.261V397.519C335.261 398.855 334.593 399.523 333.257 399.523ZM366.518 162.689L335.261 163.09V244.439H366.518C375.2 244.439 382.748 240.298 389.159 232.016C395.571 223.601 398.777 212.714 398.777 199.356C398.777 188.67 395.905 179.921 390.161 173.108C384.417 166.162 376.536 162.689 366.518 162.689Z" fill="black"/>
</svg>
