<svg width="512" height="512" viewBox="0 0 512 512" fill="none" xmlns="http://www.w3.org/2000/svg">
<rect width="512" height="512" fill="white"/>
<path d="M240.347 511.053C225.52 511.053 211.962 507.313 199.673 499.832C187.517 492.352 177.833 482.334 170.619 469.777C163.54 457.087 160 442.995 160 427.5L160.401 84.5511C160.401 69.3232 163.874 55.5647 170.82 43.2755C177.766 30.8528 187.316 20.9013 199.472 13.4209C211.761 5.80696 225.386 2 240.347 2C255.575 2 269.133 5.67339 281.021 13.0202C293.043 20.367 302.594 30.3185 309.674 42.8748C316.887 55.2976 320.494 69.1897 320.494 84.5511V103.386C320.494 104.454 319.959 104.989 318.891 104.989H272.806C271.738 104.989 271.203 104.454 271.203 103.386V84.5511C271.203 75.4678 268.265 67.6535 262.387 61.1082C256.51 54.5629 249.163 51.2902 240.347 51.2902C230.596 51.2902 223.115 54.6297 217.906 61.3086C212.696 67.9875 210.091 75.735 210.091 84.5511L210.092 427.5C210.092 437.518 213.03 445.733 218.908 452.145C224.785 458.423 231.932 461.562 240.347 461.562C249.163 461.562 256.51 458.089 262.387 451.143C268.265 444.064 271.204 436.183 271.204 427.5V408.465C271.204 407.397 271.738 406.862 272.807 406.862H319.292C320.36 406.862 320.895 407.397 320.895 408.465V427.5C320.895 442.861 317.288 456.887 310.075 469.577C302.728 482.133 293.044 492.218 281.022 499.832C269 507.313 255.441 511.053 240.347 511.053Z" fill="#E3E3E3"/>
<path d="M126.088 399.523H79.6029C78.5343 399.523 78 398.855 78 397.519L78.8015 116.004C78.8015 114.668 79.3358 114 80.4044 114H126.489C127.557 114 128.092 114.668 128.092 116.004V213.182L192.409 115.603C193.478 114.534 194.48 114 195.415 114H242.501C243.703 114 243.971 114.534 243.303 115.603L172.373 228.81L251.918 397.92C252.586 398.988 251.918 399.523 249.915 399.523H199.823C198.487 399.523 197.686 398.988 197.419 397.92L141.917 277.299L127.691 299.74V397.519C127.691 398.855 127.157 399.523 126.088 399.523Z" fill="black"/>
<path d="M318.257 399.523H272.173C270.837 399.523 270.169 398.855 270.169 397.519L270.97 115.603C270.97 114.534 271.505 114 272.573 114H351.518C376.631 114 396.467 121.681 411.027 137.042C425.72 152.27 433.067 173.041 433.067 199.356C433.067 218.591 429.26 235.355 421.646 249.648C413.899 263.808 403.88 274.761 391.591 282.508C379.302 290.256 365.944 294.13 351.518 294.13H320.261V397.519C320.261 398.855 319.593 399.523 318.257 399.523ZM351.518 162.689L320.261 163.09V244.439H351.518C360.2 244.439 367.748 240.298 374.159 232.016C380.571 223.601 383.777 212.714 383.777 199.356C383.777 188.67 380.905 179.921 375.161 173.108C369.417 166.162 361.536 162.689 351.518 162.689Z" fill="black"/>
</svg>
